inDegrees=no
num_controls=7
num_derivatives=13
num_iterations=25
num_multipliers=7
num_parameters=0
num_slacks=7
num_states=26
objective=0.474456
objective_accelerations=0.001826
objective_balance=0.012394
objective_effort=0.014664
objective_height=0.444096
objective_ligament=0.001475
solver_duration=340.018634
status=Solve_Succeeded
success=true
DataType=double
version=3
OpenSimVersion=4.5
endheader
time	/jointset/ground_pelvis/pelvis_tilt/value	/jointset/ground_pelvis/pelvis_tx/value	/jointset/ground_pelvis/pelvis_ty/value	/jointset/hip_l/hip_flexion_l/value	/jointset/hip_l/hip_adduction_l/value	/jointset/hip_l/hip_rotation_l/value	/jointset/back/lumbar_extension/value	/jointset/patellofemoral_l/patellar_flexion_l/value	/jointset/knee_l/knee_flexion_l/value	/jointset/knee_l/knee_adduction_l/value	/jointset/knee_l/knee_rotation_l/value	/jointset/ankle_l/ankle_angle_l/value	/jointset/subtalar_l/subtalar_angle_l/value	/jointset/ground_pelvis/pelvis_tilt/speed	/jointset/ground_pelvis/pelvis_tx/speed	/jointset/ground_pelvis/pelvis_ty/speed	/jointset/hip_l/hip_flexion_l/speed	/jointset/hip_l/hip_adduction_l/speed	/jointset/hip_l/hip_rotation_l/speed	/jointset/back/lumbar_extension/speed	/jointset/patellofemoral_l/patellar_flexion_l/speed	/jointset/knee_l/knee_flexion_l/speed	/jointset/knee_l/knee_adduction_l/speed	/jointset/knee_l/knee_rotation_l/speed	/jointset/ankle_l/ankle_angle_l/speed	/jointset/subtalar_l/subtalar_angle_l/speed	/forceset/tau_hip_flexion_l	/forceset/tau_hip_adduction_l	/forceset/tau_hip_rotation_l	/forceset/tau_knee_flexion_l	/forceset/tau_ankle_angle_l	/forceset/tau_subtalar_angle_l	/forceset/tau_lumbar_extension	lambda_cid13_p0	lambda_cid13_p1	lambda_cid13_p2	lambda_cid13_p3	lambda_cid13_p4	lambda_cid13_p5	lambda_cid14_p0	/jointset/ground_pelvis/pelvis_tilt/accel	/jointset/ground_pelvis/pelvis_tx/accel	/jointset/ground_pelvis/pelvis_ty/accel	/jointset/hip_l/hip_flexion_l/accel	/jointset/hip_l/hip_adduction_l/accel	/jointset/hip_l/hip_rotation_l/accel	/jointset/back/lumbar_extension/accel	/jointset/patellofemoral_l/patellar_flexion_l/accel	/jointset/knee_l/knee_flexion_l/accel	/jointset/knee_l/knee_adduction_l/accel	/jointset/knee_l/knee_rotation_l/accel	/jointset/ankle_l/ankle_angle_l/accel	/jointset/subtalar_l/subtalar_angle_l/accel	gamma_cid13_p0	gamma_cid13_p1	gamma_cid13_p2	gamma_cid13_p3	gamma_cid13_p4	gamma_cid13_p5	gamma_cid14_p0
1.5	-0.1228207037929206	0.03686058534066975	0.903136259821879	0.3921538184903592	-0.1377990788547255	-0.09625321381439436	-0.04585020357682365	0.04196493306979109	0.04196493306980782	0.08087201319988935	-0.01526678471497456	-0.03777302143372065	0.1101336064971571	0.007137172278576748	-0.01021448834581751	-0.001091533395870772	0.008619931473321935	-0.003646188643742225	-0.000575745261248457	-0.01120191996993668	0.006418248726754018	0.006418248726753975	-0.00690401628937181	0.003393416691911938	-0.01004161292115769	-0.00682542504411867	0.02511612729309003	0.06374115012524034	0.01441254386406113	-0.1851460131904429	0.2219266620095443	-0.04986674931264092	0.02133075955494344	26.01002811592243	22.97800856469819	-10.77645857417731	1.699749457494077	-629.6682959023364	-12.99652032931068	-34.6669704374387	0.02709681111635253	-0.01571411795719539	0.0005005323326469908	-0.01187434843864787	0.004094280352315792	-0.0006726795605087686	0.04410577028696653	-0.005124415580662289	-0.005124415580662303	0.00697114991019067	0.0008812404787676455	-0.02038162739228446	-0.002179956477787252	2.847170321237188e-12	1.685063854853829e-11	4.585593735986741e-12	-1.424275348123616e-11	3.747567407980438e-11	7.316051804443428e-11	-5.073434804432687e-12
1.51	-0.1227479884895428	0.03675766334583412	0.9031253693886812	0.3922394281477978	-0.137835331105294	-0.09625899815900212	-0.04596001899940957	0.04202886422701688	0.04202886422712364	0.08080333252055125	-0.01523281473477565	-0.03787444383977469	0.1100652521777143	0.007404941469400378	-0.01036901739810432	-0.001086514341348516	0.008501807416661506	-0.003603907175477494	-0.0005809714575891903	-0.01076123743801842	0.006367799427623569	0.006367799427623467	-0.006831399125886508	0.003400216899097895	-0.01024183861746474	-0.006844756569518516	0.02516782285565706	0.06368017796697163	0.01442092890760315	-0.1853532237170209	0.2222434607689899	-0.04987567421580855	0.02131149932791547	26.1112028977611	22.9723414872408	-10.78488925787132	1.660872877183504	-629.6720394659797	-13.01723102135045	-34.66931441668513	0.02647493464528406	-0.01518831413683058	0.0005084244377866611	-0.01181032172153616	0.004348213608358502	-0.0004247677062500345	0.04403856256472337	-0.005032679032439463	-0.005032679032301377	0.00751506760170033	0.0005250352391001768	-0.01968859613408208	-0.001707401878228485	-1.131464801668275e-11	-5.056712135804487e-11	3.660640854296253e-11	2.549828450135412e-12	3.162518193854893e-12	-7.515421005103284e-11	-5.690137072065274e-12
1.52	-0.1226726239019166	0.0366532228574213	0.903114530312514	0.3923238507869995	-0.1378711499144456	-0.09626483020120355	-0.04606542978314657	0.04209228539282834	0.04209228539285634	0.08073539962654087	-0.01519878762770431	-0.03797783761387542	0.109996725012754	0.007667029123393398	-0.01051818706125664	-0.001081261989715863	0.008382527862322761	-0.003559500365482509	-0.0005852847753271255	-0.01032099218929929	0.006316250450353991	0.00631625045035383	-0.006754459241002505	0.003404842082316386	-0.01043588652914479	-0.006859994147194272	0.02521951841644889	0.06361920580888142	0.01442931395020658	-0.1855604342444364	0.2225602595282577	-0.04988459911883874	0.02129223909950117	26.21225764021446	22.96667487969365	-10.7932965451083	1.623246724932921	-629.6768720001797	-13.03804059133922	-34.67164328442514	0.02596050375065071	-0.01464224013064908	0.0005471917547186379	-0.01210544797432345	0.004519348698490444	-0.0004901038397907252	0.04401831364739019	-0.005344351208494968	-0.005344351208494195	0.007835694190171615	0.0004462356851298276	-0.01914607046731053	-0.001361166932979533	-2.207146845840702e-11	-5.768364408661488e-11	4.141922705919331e-11	1.001255336744636e-11	-1.357002815493094e-11	-1.008707009199258e-10	-8.604451321288927e-12
1.53	-0.1225946690969763	0.03654731906511755	0.9031037449539088	0.3924070751595521	-0.137906513863565	-0.09627069989239594	-0.04616644184613932	0.04215518545933759	0.0421551854594416	0.08066825816250962	-0.01516472629385358	-0.03808313915895052	0.1099280666586693	0.007922782826222646	-0.01066151525784858	-0.001075764003987812	0.008262134918103252	-0.003512956693842315	-0.0005884909195050565	-0.009881673520165297	0.00626352939644489	0.006263529396444806	-0.006673154593509573	0.00340703137863547	-0.01062322275356207	-0.006870963344322831	0.02528833333767475	0.06355495201114844	0.01444095375213776	-0.1857967102198535	0.2229192999184611	-0.04989531144656806	0.02126069520018223	26.32682060601587	22.96132684827887	-10.80393343451846	1.576213765566195	-629.6813735778546	-13.05880240106165	-34.67395659468524	0.0252104427480121	-0.01401968800706277	0.0005579589364130999	-0.01203798042939286	0.004771795707269773	-0.0002114879249918555	0.04385067852384152	-0.005270996813542395	-0.005270996813375216	0.008379696059577956	4.628093119647203e-05	-0.01834744507426908	-0.0008578017167615594	-2.921047863542347e-11	-7.301023135465992e-13	1.732354951650781e-11	7.562305207318006e-12	-1.162317687048057e-11	3.673435264414795e-12	-1.395997830095306e-11
